<svg width="720" height="1280" viewBox="0 0 720 1280" xmlns="http://www.w3.org/2000/svg">
  <defs>
    <linearGradient id="bg" x1="0" y1="0" x2="0" y2="1">
      <stop offset="0%" stop-color="#fde4d9" />
      <stop offset="100%" stop-color="#f8cfbe" />
    </linearGradient>
  </defs>
  <rect width="720" height="1280" fill="url(#bg)" />
  <g font-family="Poppins, Arial, sans-serif" font-size="32">
    <rect x="80" y="180" width="400" height="70" rx="28" fill="#f2b0c3" />
    <text x="110" y="225" fill="#2f1a24">Oa kameez q pahni hai</text>

    <rect x="420" y="260" width="120" height="70" rx="28" fill="#1f2a44" />
    <text x="445" y="305" fill="#fdf7ef">Bc</text>

    <rect x="80" y="350" width="320" height="70" rx="28" fill="#f2b0c3" />
    <text x="110" y="395" fill="#2f1a24">Qk sister pass ha 😃😂</text>

    <rect x="420" y="430" width="200" height="70" rx="28" fill="#1f2a44" />
    <text x="445" y="475" fill="#fdf7ef">O fuck 😭😭</text>

    <rect x="420" y="510" width="240" height="70" rx="28" fill="#1f2a44" />
    <text x="445" y="555" fill="#fdf7ef">Kia mall hai bc</text>

    <rect x="80" y="600" width="300" height="70" rx="28" fill="#f2b0c3" />
    <text x="110" y="645" fill="#2f1a24">Aik bt pouchun</text>

    <rect x="80" y="680" width="420" height="70" rx="28" fill="#f2b0c3" />
    <text x="110" y="725" fill="#2f1a24">Size pata ha kia meri bra ka</text>

    <rect x="420" y="760" width="180" height="70" rx="28" fill="#1f2a44" />
    <text x="445" y="805" fill="#fdf7ef">Aik bt pouchun</text>

    <rect x="420" y="840" width="140" height="70" rx="28" fill="#1f2a44" />
    <text x="445" y="885" fill="#fdf7ef">Ahoo</text>
  </g>
</svg>

