<svg width="640" height="480" viewBox="0 0 640 480" xmlns="http://www.w3.org/2000/svg">
  <defs>
    <linearGradient id="mem2-bg" x1="0" y1="0" x2="1" y2="1">
      <stop offset="0" stop-color="#120c1d" />
      <stop offset="1" stop-color="#050309" />
    </linearGradient>
    <linearGradient id="mem2-sky" x1="0" y1="0" x2="0" y2="1">
      <stop offset="0" stop-color="#f9dec0" />
      <stop offset="0.4" stop-color="#f1c98f" />
      <stop offset="1" stop-color="#2b1824" />
    </linearGradient>
  </defs>

  <rect width="640" height="480" fill="url(#mem2-bg)" />
  <rect x="40" y="40" width="560" height="400" rx="26" fill="#fdf7ef" />
  <rect x="58" y="60" width="524" height="292" rx="22" fill="#090610" />

  <rect x="70" y="74" width="500" height="260" rx="22" fill="url(#mem2-sky)" />

  <circle cx="430" cy="120" r="28" fill="#fdf7ef" opacity="0.92" />
  <path
    d="M90 250 Q 170 210 260 220 T 550 250 V 290 H 90 Z"
    fill="#1a1123"
    opacity="0.95"
  />

  <path
    d="M270 210 C 288 190 314 180 338 182 C 362 184 384 196 398 214 C 386 214 366 218 348 222 C 328 226 304 232 288 236 Z"
    fill="#f4e4cf"
    opacity="0.95"
  />

  <rect x="340" y="326" width="100" height="6" rx="3" fill="#d4c2b0" />
  <rect x="360" y="332" width="44" height="4" rx="2" fill="#b19e8b" />
</svg>



