<svg width="640" height="480" viewBox="0 0 640 480" xmlns="http://www.w3.org/2000/svg">
  <defs>
    <linearGradient id="mem1-bg" x1="0" y1="0" x2="1" y2="1">
      <stop offset="0" stop-color="#1a1024" />
      <stop offset="1" stop-color="#050309" />
    </linearGradient>
    <linearGradient id="mem1-sky" x1="0" y1="0" x2="0" y2="1">
      <stop offset="0" stop-color="#f1c98f" />
      <stop offset="0.6" stop-color="#c2726b" />
      <stop offset="1" stop-color="#130a18" />
    </linearGradient>
  </defs>

  <rect width="640" height="480" fill="url(#mem1-bg)" />
  <rect x="40" y="40" width="560" height="400" rx="26" fill="#fdf7ef" />
  <rect x="58" y="60" width="524" height="292" rx="22" fill="#090610" />

  <rect x="70" y="74" width="500" height="260" rx="22" fill="url(#mem1-sky)" />

  <circle cx="180" cy="130" r="32" fill="#fdf7ef" opacity="0.94" />
  <path
    d="M120 238 Q 200 210 280 218 T 520 238 V 280 H 120 Z"
    fill="#181221"
    opacity="0.9"
  />

  <path
    d="M192 212 C 212 180 244 164 274 166 C 304 168 332 188 348 214 C 334 214 310 218 290 222 C 262 228 232 236 212 240 Z"
    fill="#f4e4cf"
    opacity="0.9"
  />

  <rect x="108" y="320" width="148" height="6" rx="3" fill="#d4c2b0" />
  <rect x="196" y="326" width="60" height="4" rx="2" fill="#b19e8b" />
</svg>



